<svg xmlns="http://www.w3.org/2000/svg" xmlns:xlink="http://www.w3.org/1999/xlink" width="500" zoomAndPan="magnify" viewBox="0 0 375 374.999991" height="500" preserveAspectRatio="xMidYMid meet" version="1.0"><defs><g/><clipPath id="13531b45ff"><path d="M 14.292969 15.214844 L 358.867188 15.214844 L 358.867188 359.785156 L 14.292969 359.785156 Z M 14.292969 15.214844 " clip-rule="nonzero"/></clipPath><clipPath id="ba5a6db580"><path d="M 186.578125 15.214844 C 91.429688 15.214844 14.292969 92.347656 14.292969 187.5 C 14.292969 282.652344 91.429688 359.785156 186.578125 359.785156 C 281.730469 359.785156 358.867188 282.652344 358.867188 187.5 C 358.867188 92.347656 281.730469 15.214844 186.578125 15.214844 Z M 186.578125 15.214844 " clip-rule="nonzero"/></clipPath><clipPath id="30c769d4c7"><path d="M 293.675781 210.816406 L 345.363281 210.816406 L 345.363281 269.167969 L 293.675781 269.167969 Z M 293.675781 210.816406 " clip-rule="nonzero"/></clipPath><clipPath id="4a715422df"><path d="M 319.519531 210.816406 C 305.246094 210.816406 293.675781 223.871094 293.675781 239.976562 C 293.675781 256.078125 305.246094 269.132812 319.519531 269.132812 C 333.792969 269.132812 345.363281 256.078125 345.363281 239.976562 C 345.363281 223.871094 333.792969 210.816406 319.519531 210.816406 Z M 319.519531 210.816406 " clip-rule="nonzero"/></clipPath><clipPath id="dac5b84629"><path d="M 310.519531 227.660156 L 335.152344 227.660156 L 335.152344 252.292969 L 310.519531 252.292969 Z M 310.519531 227.660156 " clip-rule="nonzero"/></clipPath><clipPath id="88146b1278"><path d="M 322.835938 227.660156 C 316.035156 227.660156 310.519531 233.175781 310.519531 239.976562 C 310.519531 246.777344 316.035156 252.292969 322.835938 252.292969 C 329.636719 252.292969 335.152344 246.777344 335.152344 239.976562 C 335.152344 233.175781 329.636719 227.660156 322.835938 227.660156 Z M 322.835938 227.660156 " clip-rule="nonzero"/></clipPath></defs><g clip-path="url(#13531b45ff)"><g clip-path="url(#ba5a6db580)"><path fill="#272727" d="M 14.292969 15.214844 L 358.867188 15.214844 L 358.867188 359.785156 L 14.292969 359.785156 Z M 14.292969 15.214844 " fill-opacity="1" fill-rule="nonzero"/></g></g><g fill="#ffffff" fill-opacity="1"><g transform="translate(55.479263, 257.908925)"><g><path d="M 97.359375 -167.6875 L 165.03125 0 L 123.984375 0 L 111.578125 -33.53125 L 47.765625 -33.53125 L 35.359375 0 L -5.6875 0 L 61.984375 -167.6875 Z M 98.578125 -67.078125 L 79.875 -115.859375 L 79.46875 -115.859375 L 60.765625 -67.078125 Z M 98.578125 -67.078125 "/></g></g></g><g fill="#ffffff" fill-opacity="1"><g transform="translate(203.154669, 257.908925)"><g><path d="M 50.40625 -167.6875 L 50.40625 -33.53125 L 108.125 -33.53125 L 108.125 0 L 12.1875 0 L 12.1875 -167.6875 Z M 50.40625 -167.6875 "/></g></g></g><g clip-path="url(#30c769d4c7)"><g clip-path="url(#4a715422df)"><path fill="#272727" d="M 293.675781 210.816406 L 345.363281 210.816406 L 345.363281 269.167969 L 293.675781 269.167969 Z M 293.675781 210.816406 " fill-opacity="1" fill-rule="nonzero"/></g></g><g clip-path="url(#dac5b84629)"><g clip-path="url(#88146b1278)"><path fill="#ffffff" d="M 310.519531 227.660156 L 335.152344 227.660156 L 335.152344 252.292969 L 310.519531 252.292969 Z M 310.519531 227.660156 " fill-opacity="1" fill-rule="nonzero"/></g></g></svg>